<svg width="16" height="16" viewBox="0 0 16 16" fill="none" xmlns="http://www.w3.org/2000/svg">
<path d="M15.4858 9.1577C15.2846 9.11316 14.9654 9.03891 14.5614 8.9449C13.0427 8.59151 10.501 8 9.94957 8C9.94138 8 9.93367 8.00015 9.9264 8.00037C8.9441 8.03407 6.99459 8.76054 5.82977 9.19447C5.41627 9.34861 5.08973 9.47032 4.95103 9.50684C4.6932 9.57458 4.50946 9.84991 4.50414 10.1762C4.49873 10.5107 4.69385 10.9301 5.25768 11.1045C5.48578 11.175 5.75884 11.2108 6.06921 11.2108C6.71483 11.2108 7.41089 11.0595 7.91919 10.9491C8.21125 10.8856 8.44192 10.8354 8.56285 10.8354C8.60012 10.8354 8.61682 10.8404 8.62359 10.8434C8.6154 11.0715 8.24639 11.3254 7.63302 11.5242C7.03058 11.7195 6.28718 11.8361 5.64431 11.8361C5.39408 11.8361 5.1689 11.8182 4.97503 11.783C3.66285 11.5444 2.19598 10.9648 1.05108 10.2325C0.918679 10.1477 0.783971 10.1048 0.65074 10.1048C0.381856 10.1048 0.152769 10.2835 0.0528579 10.5711C-0.0884291 10.9778 0.0574862 11.477 0.443122 11.9066C1.05643 12.5895 4.15289 14.6914 5.20514 14.9749C5.26788 14.9918 5.35858 15 5.48244 15C6.84614 15 11.7446 13.9776 12.3116 13.8283C12.2217 13.8283 12.3534 13.8174 12.3116 13.8283C12.9786 13.8283 14.763 14.1408 15.3376 14.2545C15.469 14.2806 15.5653 14.2927 15.6407 14.2927C15.7799 14.2927 15.8598 14.2492 15.8999 14.1519C15.9355 14.0651 15.9355 13.9435 15.9355 13.775V13.7574C15.9355 13.002 15.9524 12.288 15.9688 11.5976C15.9848 10.9199 16 10.2799 16 9.61494C16 9.2715 15.7028 9.20574 15.4858 9.1577Z" fill="#248F55"/>
<path d="M10.4828 5.51422C9.03207 6.83402 6.07688 6.74018 4.26456 7C4.38061 6.88332 4.48555 6.75149 4.59866 6.60826C5.04488 6.04312 5.65605 5.26907 7.5316 4.96835C7.95035 4.9012 8.22619 4.55637 8.14771 4.19812C8.06922 3.83983 7.66577 3.60394 7.24735 3.67107C4.73829 4.0734 3.81575 5.24179 3.32008 5.86951C3.23275 5.98014 3.11362 6.13109 3.06092 6.17196C3.04463 6.18194 3.02947 6.19274 3.01438 6.20354C2.90418 4.97298 3.37814 2.91335 6.17126 1.93568C10.1115 0.556466 10.9746 0.190518 11.3638 0.00704634C11.7531 -0.176422 12.9559 3.26411 10.4828 5.51422Z" fill="url(#paint0_linear)"/>
<defs>
<linearGradient id="paint0_linear" x1="7.49996" y1="1.02642e-06" x2="7.49996" y2="7" gradientUnits="userSpaceOnUse">
<stop offset="0.296875" stop-color="#34CB79"/>
<stop offset="1" stop-color="#248F55"/>
</linearGradient>
</defs>
</svg>
