<?xml version="1.0" encoding="iso-8859-1"?>
<!-- Generator: Adobe Illustrator 17.1.0, SVG Export Plug-In . SVG Version: 6.00 Build 0)  -->
<!DOCTYPE svg PUBLIC "-//W3C//DTD SVG 1.1//EN" "http://www.w3.org/Graphics/SVG/1.1/DTD/svg11.dtd">
<svg version="1.1" id="Capa_1" xmlns="http://www.w3.org/2000/svg" xmlns:xlink="http://www.w3.org/1999/xlink" x="0px" y="0px"
	 viewBox="0 0 401.336 401.336" style="enable-background:new 0 0 401.336 401.336;" xml:space="preserve">
<g>
	<path d="M388.438,253.651c-5.048-0.964-13.053-2.571-23.187-4.605c-38.094-7.648-101.851-20.448-115.682-20.448
		c-0.205,0-0.397,0.003-0.581,0.008c-24.638,0.729-73.539,16.45-102.757,25.842c-10.372,3.334-18.563,5.968-22.042,6.757
		c-6.467,1.467-11.076,7.425-11.209,14.487c-0.136,7.237,4.758,16.315,18.901,20.088c5.722,1.527,12.571,2.301,20.356,2.301
		c16.194,0,33.654-3.274,46.403-5.664c7.327-1.374,13.114-2.459,16.147-2.459c0.933,0,1.353,0.106,1.522,0.172
		c-0.206,4.937-9.461,10.431-24.846,14.733c-15.111,4.226-33.759,6.749-49.884,6.749c-6.277,0-11.925-0.387-16.788-1.149
		c-32.914-5.162-69.708-17.706-98.426-33.555c-3.321-1.833-6.7-2.762-10.042-2.762c-6.745,0-12.491,3.867-14.997,10.091
		c-3.544,8.801,0.116,19.605,9.789,28.901c15.384,14.78,93.054,60.265,119.448,66.399c1.574,0.366,3.849,0.544,6.956,0.544
		c34.206,0,152.096-21.768,166.32-24.998c1.048-0.237,2.724-0.358,4.98-0.358c16.728,0,61.49,6.761,75.902,9.224
		c3.295,0.563,5.711,0.825,7.603,0.825c3.49,0,5.494-0.939,6.499-3.046c0.896-1.88,0.896-4.512,0.895-8.156v-0.38
		c0-16.35,0.424-31.8,0.835-46.742c0.403-14.664,0.783-28.514,0.783-42.904C401.336,256.114,393.881,254.691,388.438,253.651z"/>
	<path d="M262.699,165.608c-32.488,34.551-98.668,32.094-139.255,38.896c2.599-3.055,4.949-6.506,7.482-10.255
		c9.993-14.795,23.68-35.058,65.683-42.931c9.378-1.758,15.556-10.785,13.798-20.164c-1.758-9.379-10.792-15.554-20.163-13.797
		c-56.191,10.532-76.851,41.119-87.951,57.552c-1.956,2.896-4.624,6.848-5.804,7.918c-0.365,0.261-0.704,0.544-1.042,0.827
		c-2.468-32.215,8.146-86.133,70.697-111.727c88.241-36.106,107.569-45.686,116.287-50.489
		C291.148,16.635,318.085,106.703,262.699,165.608z"/>
</g>
<g>
</g>
<g>
</g>
<g>
</g>
<g>
</g>
<g>
</g>
<g>
</g>
<g>
</g>
<g>
</g>
<g>
</g>
<g>
</g>
<g>
</g>
<g>
</g>
<g>
</g>
<g>
</g>
<g>
</g>
</svg>
