<svg width="184" height="51" viewBox="0 0 184 51" fill="none" xmlns="http://www.w3.org/2000/svg">
<path d="M61.3066 32.0301C60.6258 31.9084 59.5458 31.7055 58.1789 31.4486C53.0403 30.4829 44.4399 28.8665 42.5742 28.8665C42.5465 28.8665 42.5204 28.8669 42.4958 28.8675C39.1721 28.9596 32.5757 30.9448 28.6344 32.1306C27.2353 32.5518 26.1304 32.8844 25.6611 32.9842C24.7887 33.1693 24.167 33.9217 24.149 34.8134C24.1307 35.7273 24.7909 36.8736 26.6987 37.35C27.4705 37.5427 28.3944 37.6406 29.4446 37.6406C31.6291 37.6406 33.9843 37.2271 35.7042 36.9253C36.6924 36.7518 37.4729 36.6148 37.8821 36.6148C38.0082 36.6148 38.0647 36.6283 38.0876 36.6366C38.0599 37.2598 36.8113 37.9536 34.7359 38.497C32.6975 39.0307 30.1821 39.3492 28.0069 39.3492C27.1602 39.3492 26.3983 39.3005 25.7423 39.2043C21.3024 38.5522 16.3391 36.9683 12.4652 34.9671C12.0172 34.7355 11.5614 34.6181 11.1106 34.6181C10.2008 34.6181 9.42566 35.1066 9.0876 35.8925C8.60954 37.0039 9.10326 38.368 10.4081 39.542C12.4833 41.4082 22.9605 47.1519 26.5209 47.9265C26.7332 47.9727 27.0401 47.9952 27.4592 47.9952C32.0734 47.9952 48.6479 45.2014 50.5664 44.7934C50.2621 44.7934 50.7079 44.7636 50.5664 44.7934C52.8231 44.7934 58.8611 45.6473 60.8053 45.9581C61.2497 46.0293 61.5756 46.0623 61.8308 46.0623C62.3016 46.0623 62.572 45.9436 62.7077 45.6777C62.8283 45.4404 62.8283 45.1081 62.8283 44.6478V44.5997C62.8283 42.5353 62.8855 40.5841 62.941 38.6975C62.9952 36.8457 63.0465 35.0967 63.0465 33.2796C63.0465 32.3411 62.0409 32.1614 61.3066 32.0301Z" fill="#248F55"/>
<path d="M44.3454 20.9124C39.9629 25.2753 31.0355 24.9651 25.5606 25.824C25.9112 25.4383 26.2282 25.0025 26.5699 24.529C27.9179 22.6608 29.7642 20.102 35.4301 19.1079C36.6951 18.8859 37.5284 17.746 37.2913 16.5617C37.0542 15.3773 35.8354 14.5975 34.5714 14.8194C26.9917 16.1494 24.2048 20.0118 22.7074 22.0869C22.4436 22.4526 22.0837 22.9516 21.9245 23.0867C21.8753 23.1197 21.8295 23.1554 21.7839 23.1911C21.451 19.1232 22.8828 12.3146 31.3206 9.08268C43.2239 4.52334 45.8311 3.31361 47.007 2.7071C48.183 2.1006 51.8164 13.4741 44.3454 20.9124Z" fill="url(#paint0_linear)"/>
<path d="M76 35.6456V18.1013H88.8182V21.4177H80.2727V24.8608H87.8596V28.1013H80.2727V32.3291H89.4481V35.6456H76ZM91.1037 26.3797H99.0465V29.7975H91.1037V26.3797ZM111.108 36C108.022 36 105.667 35.2068 104.042 33.6203C102.435 32.0338 101.631 29.7806 101.631 26.8608C101.631 25.4093 101.878 24.1181 102.371 22.9873C102.864 21.8397 103.54 20.8776 104.398 20.1013C105.256 19.308 106.278 18.7089 107.465 18.3038C108.652 17.8987 109.939 17.6962 111.327 17.6962C112.131 17.6962 112.861 17.7553 113.518 17.8734C114.176 17.9747 114.751 18.1013 115.244 18.2532C115.737 18.3882 116.148 18.5316 116.476 18.6835C116.805 18.8354 117.042 18.9536 117.188 19.038L115.956 22.2278C115.372 21.9409 114.687 21.6962 113.902 21.4937C113.135 21.2911 112.258 21.1899 111.272 21.1899C110.615 21.1899 109.967 21.2911 109.328 21.4937C108.707 21.6962 108.15 22.0253 107.657 22.481C107.182 22.9198 106.799 23.4937 106.507 24.2025C106.215 24.9114 106.068 25.7722 106.068 26.7848C106.068 27.5949 106.16 28.3544 106.342 29.0633C106.543 29.7553 106.854 30.3544 107.274 30.8608C107.712 31.3671 108.278 31.7722 108.972 32.076C109.666 32.3629 110.506 32.5063 111.492 32.5063C112.112 32.5063 112.669 32.4726 113.162 32.4051C113.655 32.3376 114.094 32.2616 114.477 32.1772C114.86 32.076 115.198 31.9662 115.49 31.8481C115.783 31.73 116.047 31.6203 116.285 31.519L117.462 34.6835C116.86 35.0211 116.011 35.3249 114.915 35.5949C113.82 35.865 112.551 36 111.108 36ZM133.094 28.962C133.094 30.0084 132.93 30.9705 132.601 31.8481C132.272 32.7089 131.798 33.4515 131.177 34.0759C130.556 34.6835 129.807 35.1561 128.931 35.4937C128.073 35.8312 127.105 36 126.028 36C124.969 36 124.001 35.8312 123.124 35.4937C122.266 35.1561 121.527 34.6835 120.906 34.0759C120.285 33.4515 119.801 32.7089 119.454 31.8481C119.107 30.9705 118.934 30.0084 118.934 28.962C118.934 27.9156 119.107 26.962 119.454 26.1013C119.819 25.2405 120.312 24.5063 120.933 23.8987C121.572 23.2911 122.321 22.8186 123.179 22.481C124.056 22.1435 125.005 21.9747 126.028 21.9747C127.068 21.9747 128.018 22.1435 128.876 22.481C129.753 22.8186 130.501 23.2911 131.122 23.8987C131.743 24.5063 132.227 25.2405 132.574 26.1013C132.921 26.962 133.094 27.9156 133.094 28.962ZM128.931 28.962C128.931 27.7975 128.675 26.8861 128.164 26.2279C127.671 25.5527 126.959 25.2152 126.028 25.2152C125.096 25.2152 124.375 25.5527 123.864 26.2279C123.353 26.8861 123.097 27.7975 123.097 28.962C123.097 30.1266 123.353 31.0549 123.864 31.7468C124.375 32.4219 125.096 32.7595 126.028 32.7595C126.959 32.7595 127.671 32.4219 128.164 31.7468C128.675 31.0549 128.931 30.1266 128.931 28.962ZM142.007 35.8987C140.82 35.8819 139.852 35.7637 139.104 35.5443C138.373 35.3249 137.789 35.0211 137.351 34.6329C136.931 34.2278 136.639 33.7468 136.474 33.1899C136.328 32.616 136.255 31.9747 136.255 31.2658V16.6076L140.336 16V30.5063C140.336 30.8439 140.364 31.1477 140.418 31.4177C140.473 31.6878 140.574 31.9156 140.72 32.1013C140.884 32.2869 141.112 32.4388 141.404 32.557C141.697 32.6751 142.089 32.7511 142.582 32.7848L142.007 35.8987ZM144.237 29.0886C144.237 27.9072 144.428 26.8776 144.812 26C145.213 25.1055 145.734 24.3629 146.373 23.7722C147.012 23.1814 147.742 22.7342 148.564 22.4304C149.404 22.1266 150.262 21.9747 151.139 21.9747C153.184 21.9747 154.8 22.557 155.987 23.7215C157.173 24.8692 157.767 26.5654 157.767 28.8101C157.767 29.0295 157.758 29.2743 157.739 29.5443C157.721 29.7975 157.703 30.0253 157.685 30.2279H148.427C148.518 31.0042 148.911 31.6203 149.605 32.076C150.299 32.5316 151.23 32.7595 152.399 32.7595C153.147 32.7595 153.878 32.7004 154.59 32.5823C155.32 32.4473 155.913 32.2869 156.37 32.1013L156.918 35.1646C156.699 35.2658 156.406 35.3671 156.041 35.4684C155.676 35.5696 155.265 35.654 154.809 35.7215C154.371 35.8059 153.896 35.8734 153.385 35.9241C152.873 35.9747 152.362 36 151.851 36C150.554 36 149.422 35.8228 148.454 35.4684C147.505 35.1139 146.711 34.6329 146.072 34.0253C145.451 33.4008 144.985 32.6667 144.675 31.8228C144.383 30.9789 144.237 30.0675 144.237 29.0886ZM153.823 27.6456C153.805 27.3249 153.741 27.0127 153.631 26.7089C153.54 26.4051 153.385 26.135 153.165 25.8987C152.965 25.6624 152.7 25.4684 152.371 25.3165C152.061 25.1646 151.668 25.0886 151.193 25.0886C150.737 25.0886 150.344 25.1646 150.016 25.3165C149.687 25.4515 149.413 25.6371 149.194 25.8734C148.975 26.1097 148.801 26.3882 148.674 26.7089C148.564 27.0127 148.482 27.3249 148.427 27.6456H153.823ZM160.779 19.0127L164.86 18.4051V22.3291H169.763V25.4684H164.86V30.1519C164.86 30.9451 165.006 31.5781 165.298 32.0506C165.609 32.5232 166.221 32.7595 167.134 32.7595C167.572 32.7595 168.019 32.7257 168.476 32.6582C168.95 32.5738 169.379 32.4641 169.763 32.3291L170.338 35.2658C169.845 35.4515 169.297 35.6118 168.695 35.7468C168.092 35.8819 167.353 35.9494 166.476 35.9494C165.362 35.9494 164.44 35.8143 163.71 35.5443C162.98 35.2574 162.395 34.8692 161.957 34.3797C161.519 33.8734 161.208 33.2658 161.026 32.557C160.861 31.8481 160.779 31.0633 160.779 30.2025V19.0127ZM178.057 33.0127C178.458 33.0127 178.842 33.0042 179.207 32.9873C179.572 32.9705 179.864 32.9451 180.083 32.9114V30.0506C179.919 30.0169 179.673 29.9831 179.344 29.9494C179.015 29.9156 178.714 29.8987 178.44 29.8987C178.057 29.8987 177.691 29.9241 177.344 29.9747C177.016 30.0084 176.724 30.0844 176.468 30.2025C176.212 30.3207 176.011 30.481 175.865 30.6835C175.719 30.8861 175.646 31.1392 175.646 31.443C175.646 32.0338 175.856 32.4473 176.276 32.6835C176.714 32.903 177.308 33.0127 178.057 33.0127ZM177.728 21.9747C178.933 21.9747 179.937 22.1013 180.741 22.3544C181.544 22.6076 182.183 22.9705 182.658 23.443C183.151 23.9156 183.498 24.4895 183.699 25.1646C183.9 25.8397 184 26.5907 184 27.4177V35.2658C183.416 35.384 182.603 35.519 181.562 35.6709C180.522 35.8397 179.262 35.9241 177.783 35.9241C176.851 35.9241 176.002 35.8481 175.235 35.6962C174.487 35.5443 173.839 35.2996 173.291 34.962C172.743 34.6076 172.323 34.1519 172.031 33.5949C171.739 33.038 171.593 32.3544 171.593 31.5443C171.593 30.7679 171.757 30.1097 172.086 29.5696C172.433 29.0295 172.889 28.5992 173.455 28.2785C174.021 27.9578 174.669 27.73 175.4 27.5949C176.13 27.443 176.888 27.3671 177.673 27.3671C178.203 27.3671 178.668 27.3924 179.07 27.443C179.49 27.4768 179.828 27.5274 180.083 27.5949V27.2405C180.083 26.5992 179.873 26.0844 179.453 25.6962C179.033 25.308 178.303 25.1139 177.262 25.1139C176.568 25.1139 175.884 25.1646 175.208 25.2658C174.532 25.3502 173.948 25.4768 173.455 25.6456L172.935 22.6076C173.172 22.5401 173.464 22.4726 173.811 22.4051C174.176 22.3207 174.569 22.2532 174.989 22.2025C175.409 22.135 175.847 22.0844 176.304 22.0506C176.778 22 177.253 21.9747 177.728 21.9747Z" fill="#322153"/>
<defs>
<linearGradient id="paint0_linear" x1="35.3345" y1="2.68381" x2="35.3345" y2="25.824" gradientUnits="userSpaceOnUse">
<stop offset="0.296875" stop-color="#34CB79"/>
<stop offset="1" stop-color="#248F55"/>
</linearGradient>
</defs>
</svg>
